# xmcd
# Copyright (C) 1995-1998 Ti Kan
#
# Track frame offsets:
#       150
#       18041
#       35682
#       49918
#       66204
#       84409
#       102838
#       117656
#       138262
#       157148
#
# Disc length: 2220 seconds
#
# Revision: 0
# Processed by: cddbd v1.5PL3 Copyright (c) Steve Scherf et al.
# Submitted via: CD-Transfer v1.0
#
DISCID=8408aa0a
DTITLE=Nera - Nera
DYEAR=04
DGENRE=
TTITLE0=Centar Svita
TTITLE1=Sunèan Dan
TTITLE2=Zavoli Mene
TTITLE3=Pomoè
TTITLE4=Tebi Se Predajem
TTITLE5=Vatra
TTITLE6=Dobri Stari Radio
TTITLE7=Adio Pameti
TTITLE8=Amerika
TTITLE9=Laku Noæ
EXTD=
EXTT0=
EXTT1=
EXTT2=
EXTT3=
EXTT4=
EXTT5=
EXTT6=
EXTT7=
EXTT8=
EXTT9=
PLAYORDER=
